# This file uses centimeters as units for non-parametric coordinates.

mtllib tiny-X.mtl
g shellDeformer1Set tweakSet1 vectorAdjust1Set
v 0.011919 0.061253 0.000000
v 0.001655 0.061253 0.000000
v 0.020983 0.030751 0.000000
v 0.000662 0.000000 0.000000
v 0.008898 0.000000 0.000000
v 0.024998 0.024294 0.000000
v 0.040559 0.000000 0.000000
v 0.050823 0.000000 0.000000
v 0.030751 0.031661 0.000000
v 0.050327 0.061253 0.000000
v 0.042133 0.061253 0.000000
v 0.026653 0.038159 0.000000
v 0.011919 0.061253 0.003119
v 0.001655 0.061253 0.003119
v 0.020983 0.030751 0.003119
v 0.000662 0.000000 0.003119
v 0.008898 0.000000 0.003119
v 0.024998 0.024294 0.003119
v 0.040559 0.000000 0.003119
v 0.050823 0.000000 0.003119
v 0.030751 0.031661 0.003119
v 0.050327 0.061253 0.003119
v 0.042133 0.061253 0.003119
v 0.026653 0.038159 0.003119
v 0.011919 0.061253 0.006239
v 0.001655 0.061253 0.006239
v 0.020983 0.030751 0.006239
v 0.000662 0.000000 0.006239
v 0.008898 0.000000 0.006239
v 0.024998 0.024294 0.006239
v 0.040559 0.000000 0.006239
v 0.050823 0.000000 0.006239
v 0.030751 0.031661 0.006239
v 0.050327 0.061253 0.006239
v 0.042133 0.061253 0.006239
v 0.026653 0.038159 0.006239
v 0.011919 0.061253 0.009358
v 0.001655 0.061253 0.009358
v 0.020983 0.030751 0.009358
v 0.000662 0.000000 0.009358
v 0.008898 0.000000 0.009358
v 0.024998 0.024294 0.009358
v 0.040559 0.000000 0.009358
v 0.050823 0.000000 0.009358
v 0.030751 0.031661 0.009358
v 0.050327 0.061253 0.009358
v 0.042133 0.061253 0.009358
v 0.026653 0.038159 0.009358
v 0.011919 0.061253 0.012478
v 0.001655 0.061253 0.012478
v 0.020983 0.030751 0.012478
v 0.000662 0.000000 0.012478
v 0.008898 0.000000 0.012478
v 0.024998 0.024294 0.012478
v 0.040559 0.000000 0.012478
v 0.050823 0.000000 0.012478
v 0.030751 0.031661 0.012478
v 0.050327 0.061253 0.012478
v 0.042133 0.061253 0.012478
v 0.026653 0.038159 0.012478
vt 0.415614 0.812967
vt 0.415614 0.896102
vt 0.390348 0.896102
vt 0.390348 0.812967
vt 0.365081 0.896102
vt 0.365081 0.812967
vt 0.415614 0.693624
vt 0.390348 0.693624
vt 0.339815 0.896102
vt 0.339815 0.812967
vt 0.365081 0.693624
vt 0.415614 0.568245
vt 0.390348 0.568245
vt 0.314548 0.896102
vt 0.314548 0.812967
vt 0.339815 0.693624
vt 0.365081 0.568245
vt 0.415614 0.501869
vt 0.390348 0.501869
vt 0.314548 0.693624
vt 0.339815 0.568245
vt 0.365081 0.501869
vt 0.314548 0.568245
vt 0.339815 0.501869
vt 0.314548 0.501869
vt 0.421359 0.908165
vt 0.421359 0.841453
vt 0.446625 0.841453
vt 0.446625 0.908165
vt 0.421359 0.711048
vt 0.446625 0.711048
vt 0.471892 0.841453
vt 0.471892 0.908165
vt 0.421359 0.585004
vt 0.446625 0.585004
vt 0.471892 0.711048
vt 0.497158 0.841453
vt 0.497158 0.908165
vt 0.421359 0.501869
vt 0.446625 0.501869
vt 0.471892 0.585004
vt 0.497158 0.711048
vt 0.522425 0.841453
vt 0.522425 0.908165
vt 0.471892 0.501869
vt 0.497158 0.585004
vt 0.522425 0.711048
vt 0.497158 0.501869
vt 0.522425 0.585004
vt 0.522425 0.501869
vt 0.212391 0.189051
vt 0.337769 0.001992
vt 0.404146 0.001992
vt 0.245579 0.241682
vt 0.408162 0.498131
vt 0.325027 0.498131
vt 0.198982 0.301351
vt 0.068578 0.498131
vt 0.001865 0.498131
vt 0.166460 0.249056
vt 0.009912 0.001992
vt 0.093047 0.001992
vt 0.619351 0.998008
vt 0.536216 0.998008
vt 0.692764 0.750944
vt 0.528169 0.501869
vt 0.594882 0.501869
vt 0.725286 0.698649
vt 0.851331 0.501869
vt 0.934466 0.501869
vt 0.771883 0.758318
vt 0.930450 0.998008
vt 0.864073 0.998008
vt 0.738695 0.810949
vt 0.414467 0.498131
vt 0.414467 0.251067
vt 0.439734 0.251067
vt 0.439734 0.498131
vt 0.414467 0.001992
vt 0.439734 0.001992
vt 0.465000 0.251067
vt 0.465000 0.498131
vt 0.465000 0.001992
vt 0.490266 0.251067
vt 0.490266 0.498131
vt 0.490266 0.001992
vt 0.515533 0.251067
vt 0.515533 0.498131
vt 0.515533 0.001992
vt 0.623200 0.001992
vt 0.623200 0.258441
vt 0.597933 0.258441
vt 0.597933 0.001992
vt 0.623200 0.498131
vt 0.597933 0.498131
vt 0.572667 0.258441
vt 0.572667 0.001992
vt 0.572667 0.498131
vt 0.547401 0.258441
vt 0.547401 0.001992
vt 0.547401 0.498131
vt 0.522134 0.258441
vt 0.522134 0.001992
vt 0.522134 0.498131
vn 0.000000 0.000000 -1.000000
vn 0.000000 0.000000 -1.000000
vn 0.000000 0.000000 -1.000000
vn 0.000000 0.000000 -1.000000
vn 0.000000 0.000000 -1.000000
vn 0.000000 0.000000 -1.000000
vn 0.000000 0.000000 -1.000000
vn 0.000000 0.000000 -1.000000
vn 0.000000 0.000000 -1.000000
vn 0.000000 0.000000 -1.000000
vn 0.000000 0.000000 -1.000000
vn 0.000000 0.000000 -1.000000
vn 0.000000 1.000000 0.000000
vn 0.000000 1.000000 0.000000
vn 0.000000 1.000000 0.000000
vn 0.000000 1.000000 0.000000
vn -0.844704 -0.535234 0.000000
vn -0.844704 -0.535234 0.000000
vn -0.844704 -0.535234 0.000000
vn -0.844704 -0.535234 0.000000
vn -0.834294 0.551320 0.000000
vn -0.834294 0.551320 0.000000
vn -0.834294 0.551320 0.000000
vn -0.834294 0.551320 0.000000
vn 0.000000 -1.000000 0.000000
vn 0.000000 -1.000000 0.000000
vn 0.000000 -1.000000 0.000000
vn 0.000000 -1.000000 0.000000
vn 0.833577 -0.552403 0.000000
vn 0.833577 -0.552403 0.000000
vn 0.833577 -0.552403 0.000000
vn 0.833577 -0.552403 0.000000
vn -0.842067 -0.539373 0.000000
vn -0.842067 -0.539373 0.000000
vn -0.842067 -0.539373 0.000000
vn -0.842067 -0.539373 0.000000
vn 0.000000 -1.000000 0.000000
vn 0.000000 -1.000000 0.000000
vn 0.000000 -1.000000 0.000000
vn 0.000000 -1.000000 0.000000
vn 0.844573 0.535441 0.000000
vn 0.844573 0.535441 0.000000
vn 0.844573 0.535441 0.000000
vn 0.844573 0.535441 0.000000
vn 0.834015 -0.551742 0.000000
vn 0.834015 -0.551742 0.000000
vn 0.834015 -0.551742 0.000000
vn 0.834015 -0.551742 0.000000
vn 0.000000 1.000000 0.000000
vn 0.000000 1.000000 0.000000
vn 0.000000 1.000000 0.000000
vn 0.000000 1.000000 0.000000
vn -0.830669 0.556767 0.000000
vn -0.830669 0.556767 0.000000
vn -0.830669 0.556767 0.000000
vn -0.830669 0.556767 0.000000
vn 0.843035 0.537858 0.000000
vn 0.843035 0.537858 0.000000
vn 0.843035 0.537858 0.000000
vn 0.843035 0.537858 0.000000
vn 0.000000 1.000000 0.000000
vn 0.000000 1.000000 0.000000
vn -0.844704 -0.535234 0.000000
vn -0.844704 -0.535234 0.000000
vn -0.834294 0.551320 0.000000
vn -0.834294 0.551320 0.000000
vn 0.000000 -1.000000 0.000000
vn 0.000000 -1.000000 0.000000
vn 0.833577 -0.552403 0.000000
vn 0.833577 -0.552403 0.000000
vn -0.842067 -0.539373 0.000000
vn -0.842067 -0.539373 0.000000
vn 0.000000 -1.000000 0.000000
vn 0.000000 -1.000000 0.000000
vn 0.844573 0.535441 0.000000
vn 0.844573 0.535441 0.000000
vn 0.834015 -0.551742 0.000000
vn 0.834015 -0.551742 0.000000
vn 0.000000 1.000000 0.000000
vn 0.000000 1.000000 0.000000
vn -0.830669 0.556767 0.000000
vn -0.830669 0.556767 0.000000
vn 0.843035 0.537858 0.000000
vn 0.843035 0.537858 0.000000
vn 0.000000 1.000000 0.000000
vn 0.000000 1.000000 0.000000
vn -0.844704 -0.535234 0.000000
vn -0.844704 -0.535234 0.000000
vn -0.834294 0.551320 0.000000
vn -0.834294 0.551320 0.000000
vn 0.000000 -1.000000 0.000000
vn 0.000000 -1.000000 0.000000
vn 0.833577 -0.552403 0.000000
vn 0.833577 -0.552403 0.000000
vn -0.842067 -0.539373 0.000000
vn -0.842067 -0.539373 0.000000
vn 0.000000 -1.000000 0.000000
vn 0.000000 -1.000000 0.000000
vn 0.844573 0.535441 0.000000
vn 0.844573 0.535441 0.000000
vn 0.834015 -0.551742 0.000000
vn 0.834015 -0.551742 0.000000
vn 0.000000 1.000000 0.000000
vn 0.000000 1.000000 0.000000
vn -0.830669 0.556767 0.000000
vn -0.830669 0.556767 0.000000
vn 0.843035 0.537858 0.000000
vn 0.843035 0.537858 0.000000
vn 0.000000 1.000000 0.000000
vn 0.000000 1.000000 0.000000
vn -0.844704 -0.535234 0.000000
vn -0.844704 -0.535234 0.000000
vn -0.834294 0.551320 0.000000
vn -0.834294 0.551320 0.000000
vn 0.000000 -1.000000 0.000000
vn 0.000000 -1.000000 0.000000
vn 0.833577 -0.552403 0.000000
vn 0.833577 -0.552403 0.000000
vn -0.842067 -0.539373 0.000000
vn -0.842067 -0.539373 0.000000
vn 0.000000 -1.000000 0.000000
vn 0.000000 -1.000000 0.000000
vn 0.844573 0.535441 0.000000
vn 0.844573 0.535441 0.000000
vn 0.834015 -0.551742 0.000000
vn 0.834015 -0.551742 0.000000
vn 0.000000 1.000000 0.000000
vn 0.000000 1.000000 0.000000
vn -0.830669 0.556767 0.000000
vn -0.830669 0.556767 0.000000
vn 0.843035 0.537858 0.000000
vn 0.843035 0.537858 0.000000
vn 0.000000 0.000000 1.000000
vn 0.000000 0.000000 1.000000
vn 0.000000 0.000000 1.000000
vn 0.000000 0.000000 1.000000
vn 0.000000 0.000000 1.000000
vn 0.000000 0.000000 1.000000
vn 0.000000 0.000000 1.000000
vn 0.000000 0.000000 1.000000
vn 0.000000 0.000000 1.000000
vn 0.000000 0.000000 1.000000
vn 0.000000 0.000000 1.000000
vn 0.000000 0.000000 1.000000
s off
g typeMesh1
usemtl typeBlinnSG
f 12/51/1 11/52/2 10/53/3 9/54/4 8/55/5 7/56/6 6/57/7 5/58/8 4/59/9 3/60/10 2/61/11 1/62/12
s 1
f 1/1/13 2/2/14 14/3/15 13/4/16
s 2
f 2/75/17 3/76/18 15/77/19 14/78/20
s 3
f 3/76/21 4/79/22 16/80/23 15/77/24
s 4
f 4/26/25 5/27/26 17/28/27 16/29/28
s 5
f 5/27/29 6/30/30 18/31/31 17/28/32
s 6
f 6/30/33 7/34/34 19/35/35 18/31/36
s 7
f 7/34/37 8/39/38 20/40/39 19/35/40
s 8
f 8/90/41 9/91/42 21/92/43 20/93/44
s 9
f 9/91/45 10/94/46 22/95/47 21/92/48
s 10
f 10/18/49 11/12/50 23/13/51 22/19/52
s 11
f 11/12/53 12/7/54 24/8/55 23/13/56
s 12
f 12/7/57 1/1/58 13/4/59 24/8/60
s 1
f 13/4/16 14/3/15 26/5/61 25/6/62
s 2
f 14/78/20 15/77/19 27/81/63 26/82/64
s 3
f 15/77/24 16/80/23 28/83/65 27/81/66
s 4
f 16/29/28 17/28/27 29/32/67 28/33/68
s 5
f 17/28/32 18/31/31 30/36/69 29/32/70
s 6
f 18/31/36 19/35/35 31/41/71 30/36/72
s 7
f 19/35/40 20/40/39 32/45/73 31/41/74
s 8
f 20/93/44 21/92/43 33/96/75 32/97/76
s 9
f 21/92/48 22/95/47 34/98/77 33/96/78
s 10
f 22/19/52 23/13/51 35/17/79 34/22/80
s 11
f 23/13/56 24/8/55 36/11/81 35/17/82
s 12
f 24/8/60 13/4/59 25/6/83 36/11/84
s 1
f 25/6/62 26/5/61 38/9/85 37/10/86
s 2
f 26/82/64 27/81/63 39/84/87 38/85/88
s 3
f 27/81/66 28/83/65 40/86/89 39/84/90
s 4
f 28/33/68 29/32/67 41/37/91 40/38/92
s 5
f 29/32/70 30/36/69 42/42/93 41/37/94
s 6
f 30/36/72 31/41/71 43/46/95 42/42/96
s 7
f 31/41/74 32/45/73 44/48/97 43/46/98
s 8
f 32/97/76 33/96/75 45/99/99 44/100/100
s 9
f 33/96/78 34/98/77 46/101/101 45/99/102
s 10
f 34/22/80 35/17/79 47/21/103 46/24/104
s 11
f 35/17/82 36/11/81 48/16/105 47/21/106
s 12
f 36/11/84 25/6/83 37/10/107 48/16/108
s 1
f 37/10/86 38/9/85 50/14/109 49/15/110
s 2
f 38/85/88 39/84/87 51/87/111 50/88/112
s 3
f 39/84/90 40/86/89 52/89/113 51/87/114
s 4
f 40/38/92 41/37/91 53/43/115 52/44/116
s 5
f 41/37/94 42/42/93 54/47/117 53/43/118
s 6
f 42/42/96 43/46/95 55/49/119 54/47/120
s 7
f 43/46/98 44/48/97 56/50/121 55/49/122
s 8
f 44/100/100 45/99/99 57/102/123 56/103/124
s 9
f 45/99/102 46/101/101 58/104/125 57/102/126
s 10
f 46/24/104 47/21/103 59/23/127 58/25/128
s 11
f 47/21/106 48/16/105 60/20/129 59/23/130
s 12
f 48/16/108 37/10/107 49/15/131 60/20/132
s off
f 49/63/133 50/64/134 51/65/135 52/66/136 53/67/137 54/68/138 55/69/139 56/70/140 57/71/141 58/72/142 59/73/143 60/74/144
